<svg width="470" height="500" viewBox="0 0 470 500" fill="none" xmlns="http://www.w3.org/2000/svg">
<g clip-path="url(#clip0_2_4)">
<path d="M440.818 426C448.676 426 454.838 428.354 459.303 433.061C463.767 437.768 466 445.462 466 456.143H421.931L421.663 453.563H449.122C449.212 449.128 448.944 445.054 448.319 441.343C447.694 437.541 446.711 434.509 445.372 432.246C444.032 429.983 442.246 428.851 440.014 428.851C436.888 428.851 434.209 430.843 431.977 434.826C429.834 438.809 428.539 445.417 428.092 454.65L428.494 455.464C428.405 456.55 428.316 457.682 428.226 458.859C428.226 460.035 428.226 461.257 428.226 462.525C428.226 468.771 429.075 473.84 430.771 477.732C432.557 481.624 434.79 484.476 437.469 486.286C440.148 488.006 442.871 488.866 445.64 488.866C447.515 488.866 449.435 488.594 451.4 488.051C453.453 487.418 455.507 486.331 457.561 484.793C459.615 483.163 461.535 480.9 463.321 478.004L465.732 478.818C464.66 482.258 462.964 485.607 460.642 488.866C458.32 492.125 455.373 494.795 451.801 496.877C448.229 498.959 443.943 500 438.942 500C432.87 500 427.512 498.687 422.868 496.062C418.225 493.437 414.564 489.454 411.885 484.114C409.295 478.773 408 471.984 408 463.747C408 455.328 409.384 448.313 412.152 442.701C415.01 437.089 418.895 432.925 423.806 430.209C428.807 427.403 434.477 426 440.818 426Z" fill="black"/>
<path d="M389.867 426C392.711 426 395.022 426.624 396.8 427.872C398.578 429.031 399.867 430.546 400.667 432.418C401.556 434.29 402 436.251 402 438.301C402 441.599 401.022 444.318 399.067 446.458C397.2 448.508 394.711 449.533 391.6 449.533C388.489 449.533 386.044 448.775 384.267 447.26C382.578 445.655 381.733 443.561 381.733 440.976C381.733 438.48 382.267 436.429 383.333 434.825C384.489 433.131 385.911 431.705 387.6 430.546C386.356 430.19 385.111 430.234 383.867 430.68C382.178 430.947 380.578 431.66 379.067 432.819C377.556 433.889 376.267 435.271 375.2 436.964C374.133 438.569 373.289 440.352 372.667 442.313C372.044 444.185 371.733 446.012 371.733 447.795V483.228C371.733 487.507 372.756 490.404 374.8 491.919C376.933 493.434 380.089 494.192 384.267 494.192V497C382.222 496.911 379.244 496.822 375.333 496.733C371.422 496.554 367.333 496.465 363.067 496.465C359.511 496.465 355.911 496.554 352.267 496.733C348.622 496.822 345.867 496.911 344 497V494.192C347.111 494.192 349.289 493.524 350.533 492.186C351.867 490.849 352.533 488.309 352.533 484.565V442.446C352.533 438.435 351.911 435.493 350.667 433.621C349.511 431.66 347.289 430.68 344 430.68V427.872C346.844 428.139 349.6 428.273 352.267 428.273C356 428.273 359.467 428.139 362.667 427.872C365.956 427.515 368.978 427.025 371.733 426.401V438.836C372.8 436.429 374.222 434.245 376 432.284C377.778 430.323 379.822 428.808 382.133 427.738C384.444 426.579 387.022 426 389.867 426Z" fill="black"/>
<path d="M292.411 499C288.258 499 284.798 498.231 282.029 496.693C279.26 495.156 277.23 493.12 275.938 490.587C274.646 487.964 274 485.115 274 482.039C274 478.149 274.877 474.983 276.63 472.541C278.476 470.099 280.829 468.108 283.69 466.571C286.551 465.033 289.55 463.766 292.688 462.771C295.918 461.776 298.963 460.827 301.824 459.922C304.778 458.927 307.131 457.796 308.884 456.53C310.73 455.173 311.653 453.454 311.653 451.374V440.79C311.653 438.438 311.238 436.357 310.407 434.548C309.669 432.649 308.469 431.201 306.808 430.206C305.239 429.211 303.163 428.714 300.579 428.714C298.733 428.714 296.887 428.985 295.041 429.528C293.196 429.98 291.673 430.794 290.473 431.97C293.057 432.875 295.041 434.277 296.426 436.177C297.902 437.986 298.64 440.066 298.64 442.418C298.64 445.494 297.533 447.936 295.318 449.745C293.196 451.555 290.658 452.459 287.705 452.459C284.382 452.459 281.844 451.464 280.091 449.474C278.43 447.393 277.599 444.906 277.599 442.011C277.599 439.388 278.245 437.217 279.537 435.498C280.921 433.779 282.813 432.151 285.213 430.613C287.797 429.166 290.888 428.035 294.488 427.221C298.179 426.407 302.147 426 306.393 426C310.638 426 314.468 426.452 317.882 427.357C321.297 428.171 324.158 429.709 326.465 431.97C328.587 434.051 329.972 436.629 330.618 439.704C331.264 442.69 331.587 446.489 331.587 451.102V488.009C331.587 490.271 331.817 491.854 332.279 492.758C332.74 493.572 333.525 493.98 334.632 493.98C335.463 493.98 336.247 493.753 336.986 493.301C337.816 492.849 338.693 492.306 339.616 491.673L341 493.98C339.062 495.608 336.801 496.874 334.217 497.779C331.725 498.593 328.91 499 325.773 499C322.358 499 319.636 498.548 317.605 497.643C315.575 496.648 314.098 495.336 313.176 493.708C312.345 492.08 311.93 490.18 311.93 488.009C309.715 491.447 307.039 494.16 303.901 496.151C300.763 498.05 296.933 499 292.411 499ZM302.24 490.316C304.085 490.316 305.747 489.909 307.223 489.095C308.792 488.19 310.269 486.743 311.653 484.753V456.937C310.822 458.294 309.669 459.515 308.192 460.6C306.716 461.686 305.147 462.817 303.486 463.993C301.824 465.078 300.209 466.299 298.64 467.656C297.164 469.013 295.964 470.686 295.041 472.677C294.118 474.667 293.657 477.064 293.657 479.868C293.657 483.396 294.441 486.019 296.01 487.738C297.579 489.457 299.656 490.316 302.24 490.316Z" fill="black"/>
<path d="M201.997 428.135V430.962C200.003 430.962 198.234 431.096 196.693 431.365C195.242 431.545 194.244 432.173 193.7 433.25C193.247 434.327 193.428 436.077 194.244 438.5L207.166 478.481L205.398 480.365L221.312 428L224.033 429.212L203.222 498C201.771 497.91 200.32 497.865 198.869 497.865C197.418 497.865 195.922 497.91 194.38 498L172.889 438.5C171.62 434.91 170.214 432.756 168.673 432.038C167.222 431.321 165.997 430.962 165 430.962V428.135C167.902 428.404 170.894 428.628 173.977 428.808C177.151 428.897 180.597 428.942 184.315 428.942C187.126 428.942 190.073 428.853 193.156 428.673C196.33 428.494 199.277 428.314 201.997 428.135ZM273 428.135V430.827C271.277 431.276 269.645 432.308 268.103 433.923C266.562 435.538 265.111 438.365 263.751 442.404L245.66 498C244.209 497.91 242.713 497.865 241.171 497.865C239.72 497.865 238.269 497.91 236.819 498L217.64 446.173L221.312 428C222.945 428.09 224.577 428.135 226.209 428.135C227.932 428.045 229.61 428 231.242 428L249.877 482.385L248.38 480.904L257.494 452.365C259.035 447.429 259.625 443.436 259.262 440.385C258.899 437.333 257.811 435.045 255.997 433.519C254.184 431.994 251.736 431.096 248.652 430.827V428.135C250.103 428.224 251.645 428.314 253.277 428.404C255 428.404 256.678 428.449 258.31 428.538C260.033 428.538 261.484 428.538 262.662 428.538C264.476 428.538 266.335 428.494 268.239 428.404C270.234 428.314 271.821 428.224 273 428.135Z" fill="black"/>
<path d="M443.622 273V306.508H467.751V310.594H443.622V393.138C443.622 397.224 444.372 400.153 445.871 401.924C447.371 403.558 449.62 404.376 452.619 404.376C455.073 404.376 457.527 403.49 459.98 401.719C462.434 399.812 464.615 396.612 466.524 392.117L470 393.955C467.819 400.085 464.479 405.125 459.98 409.075C455.618 413.025 449.62 415 441.986 415C437.487 415 433.534 414.387 430.126 413.161C426.718 412.071 423.855 410.369 421.538 408.053C418.539 405.057 416.562 401.379 415.608 397.02C414.654 392.525 414.176 386.736 414.176 379.653V310.594H397V306.508H414.176V279.538C419.902 279.538 425.15 279.061 429.922 278.108C434.829 277.018 439.396 275.316 443.622 273Z" fill="black"/>
<path d="M384.042 252C388.834 252 393.01 252.614 396.57 253.841C400.13 255.069 403.279 256.706 406.017 258.752C407.934 260.252 409.577 262.367 410.946 265.095C412.315 267.686 413 270.687 413 274.097C413 277.78 411.631 281.054 408.892 283.918C406.291 286.783 402.8 288.215 398.418 288.215C393.9 288.215 390.134 286.919 387.122 284.327C384.247 281.736 382.809 278.189 382.809 273.688C382.809 270.142 383.836 267.004 385.89 264.276C387.944 261.548 390.956 259.639 394.927 258.547C394.516 257.729 393.694 257.047 392.462 256.501C391.23 255.956 389.587 255.683 387.533 255.683C384.795 255.683 382.535 256.16 380.756 257.115C378.976 258.07 377.538 259.366 376.443 261.003C374.936 263.049 373.91 266.049 373.362 270.005C372.814 273.824 372.54 279.758 372.54 287.806V306.425H394.516V310.517H372.54V390.926C372.54 397.61 374.252 402.111 377.675 404.43C381.098 406.612 385.822 407.703 391.846 407.703V412C388.286 411.864 383.289 411.727 376.853 411.591C370.418 411.318 363.641 411.182 356.521 411.182C351.318 411.182 346.183 411.318 341.117 411.591C336.188 411.727 332.423 411.864 329.822 412V407.703C334.614 407.703 337.968 406.68 339.885 404.634C341.939 402.588 342.966 398.701 342.966 392.972V310.517H329V306.425H342.966C342.966 298.377 343.377 291.693 344.198 286.373C345.02 280.917 346.389 276.28 348.306 272.46C350.222 268.641 352.756 265.231 355.905 262.23C358.917 259.366 362.888 256.979 367.817 255.069C372.883 253.023 378.291 252 384.042 252Z" fill="black"/>
<path d="M244 252C258.501 252 271.214 254.692 282.139 260.075C293.064 265.459 301.605 274.132 307.763 286.095C313.921 298.059 317 313.91 317 333.65C317 353.389 313.921 369.24 307.763 381.204C301.605 392.968 293.064 401.541 282.139 406.925C271.214 412.308 258.501 415 244 415C229.897 415 217.283 412.308 206.159 406.925C195.234 401.541 186.593 392.968 180.237 381.204C174.079 369.24 171 353.389 171 333.65C171 313.91 174.079 298.059 180.237 286.095C186.593 274.132 195.234 265.459 206.159 260.075C217.283 254.692 229.897 252 244 252ZM244 257.982C236.054 257.982 229.4 263.963 224.037 275.927C218.673 287.691 215.992 306.931 215.992 333.65C215.992 360.368 218.673 379.609 224.037 391.372C229.4 403.136 236.054 409.018 244 409.018C252.144 409.018 258.799 403.136 263.963 391.372C269.327 379.609 272.008 360.368 272.008 333.65C272.008 306.931 269.327 287.691 263.963 275.927C258.799 263.963 252.144 257.982 244 257.982Z" fill="black"/>
<path d="M79.3053 246C92.9269 246 103.432 247.498 110.82 250.493C118.208 253.257 124.557 256.252 129.867 259.478C132.637 261.09 134.831 262.357 136.447 263.279C138.294 263.97 140.025 264.316 141.641 264.316C143.95 264.316 145.566 263.049 146.49 260.514C147.644 257.98 148.568 254.179 149.26 249.11H157.225C156.995 253.488 156.648 258.786 156.186 265.007C155.956 270.997 155.725 278.945 155.494 288.852C155.494 298.758 155.494 311.775 155.494 327.902H147.529C146.605 315.922 143.835 304.288 139.217 292.999C134.6 281.71 128.02 272.494 119.477 265.352C111.166 257.98 100.892 254.294 88.6557 254.294C77.5738 254.294 68.4542 257.404 61.2971 263.624C54.14 269.845 50.5615 278.484 50.5615 289.543C50.5615 298.758 52.8702 306.707 57.4877 313.388C62.1052 319.839 68.8005 326.174 77.5738 332.395C86.5779 338.615 97.429 346.102 110.127 354.857C121.209 361.999 131.137 369.141 139.91 376.283C148.683 383.425 155.725 391.488 161.035 400.473C166.345 409.458 169 420.171 169 432.612C169 447.818 164.96 460.374 156.879 470.28C149.029 480.187 138.64 487.674 125.711 492.743C112.782 497.581 98.5833 500 83.1148 500C68.8005 500 57.3723 498.618 48.8299 495.853C40.2876 493.088 33.1305 490.209 27.3586 487.214C22.2794 483.988 18.3545 482.376 15.584 482.376C13.2753 482.376 11.5437 483.643 10.3893 486.177C9.46585 488.711 8.65779 492.512 7.96516 497.581H0C0.461749 492.052 0.692623 485.601 0.692623 478.229C0.923497 470.856 1.03893 461.295 1.03893 449.546C1.26981 437.566 1.38525 422.475 1.38525 404.275H9.35041C10.2739 419.48 12.8135 433.764 16.9693 447.127C21.3559 460.258 27.9358 470.856 36.709 478.92C45.7131 486.983 57.6031 491.015 72.3791 491.015C80.4597 491.015 87.6168 489.633 93.8504 486.868C100.315 483.873 105.51 479.496 109.434 473.736C113.359 467.976 115.322 460.834 115.322 452.31C115.322 442.634 113.013 434.225 108.395 427.083C104.009 419.941 97.8907 413.26 90.041 407.039C82.4221 400.819 73.5335 394.483 63.375 388.033C52.5239 380.891 42.3654 373.749 32.8996 366.607C23.4337 359.465 15.8149 351.286 10.043 342.071C4.50205 332.855 1.73156 321.912 1.73156 309.241C1.73156 294.727 5.31011 282.862 12.4672 273.646C19.8552 264.2 29.4365 257.289 41.2111 252.912C53.2165 248.304 65.9146 246 79.3053 246Z" fill="black"/>
<path d="M292.114 95V100.037C288.901 100.037 286.491 100.756 284.884 102.195C283.438 103.634 283.519 105.633 285.125 108.191L348.505 201.971C350.433 204.849 352.441 207.487 354.529 209.886C356.779 212.124 359.269 213.484 362 213.963V219C359.59 218.84 355.895 218.68 350.915 218.52C346.095 218.201 341.195 218.041 336.214 218.041C330.431 218.041 324.486 218.201 318.381 218.52C312.276 218.68 307.778 218.84 304.886 219V213.963C308.099 213.963 310.429 213.244 311.875 211.805C313.481 210.366 313.481 208.367 311.875 205.809L248.495 112.029C245.764 108.032 243.435 105.153 241.507 103.395C239.739 101.476 237.571 100.357 235 100.037V95C237.731 95.1599 241.828 95.3997 247.29 95.7195C252.753 95.8794 258.215 95.9594 263.677 95.9594C268.979 95.9594 274.361 95.8794 279.824 95.7195C285.286 95.3997 289.383 95.1599 292.114 95ZM286.571 161.197C286.571 161.197 286.651 161.677 286.812 162.636C287.133 163.596 287.374 164.555 287.535 165.515C287.856 166.474 288.017 166.954 288.017 166.954L278.378 179.186C273.558 185.422 270.907 191.178 270.425 196.455C269.943 201.571 271.309 205.729 274.522 208.927C277.735 211.965 282.153 213.723 287.776 214.203V219C284.724 218.84 280.948 218.76 276.45 218.76C272.112 218.6 267.855 218.52 263.677 218.52C259.5 218.36 255.966 218.28 253.074 218.28C249.54 218.28 246.407 218.36 243.676 218.52C241.105 218.52 238.615 218.68 236.205 219V214.203C239.9 212.764 243.435 210.685 246.808 207.967C250.182 205.089 253.958 201.012 258.135 195.735L286.571 161.197ZM355.011 95V99.7969C351.638 100.756 348.103 102.835 344.408 106.033C340.713 109.231 336.857 113.308 332.841 118.265L306.332 151.364C306.332 151.364 306.171 150.964 305.85 150.164C305.689 149.205 305.448 148.246 305.127 147.286C304.966 146.327 304.886 145.847 304.886 145.847L316.935 129.778C321.273 124.181 323.924 119.224 324.888 114.907C325.852 110.59 325.129 107.072 322.719 104.354C320.47 101.636 316.454 100.117 310.67 99.7969V95C315.329 95.1599 320.068 95.3198 324.888 95.4797C329.708 95.6396 334.046 95.7195 337.901 95.7195C341.596 95.7195 344.81 95.6396 347.541 95.4797C350.272 95.3198 352.762 95.1599 355.011 95Z" fill="black"/>
<path d="M352.394 3V65.6181C352.394 70.1015 353.095 73.4391 354.496 75.631C355.896 77.7233 358.398 78.7694 362 78.7694V81.9077C358.898 81.6089 355.796 81.4594 352.695 81.4594C348.492 81.4594 344.59 81.6089 340.988 81.9077C337.386 82.2066 333.984 82.7546 330.782 83.5517V70.1015C328.38 75.083 325.029 78.6697 320.726 80.8616C316.524 82.9539 311.821 84 306.618 84C302.415 84 299.013 83.452 296.412 82.3561C293.81 81.2601 291.759 79.8653 290.258 78.1716C288.557 76.2786 287.357 73.7878 286.656 70.6993C285.956 67.6107 285.606 63.6255 285.606 58.7435V20.9336C285.606 16.4502 284.905 13.1624 283.504 11.0701C282.204 8.87822 279.702 7.78229 276 7.78229V4.64391C279.202 4.9428 282.304 5.09225 285.305 5.09225C289.508 5.09225 293.41 4.9428 297.012 4.64391C300.714 4.24538 304.116 3.69741 307.218 3V64.8708C307.218 67.3616 307.418 69.5535 307.819 71.4465C308.319 73.3395 309.219 74.8339 310.52 75.9299C311.821 76.9262 313.722 77.4244 316.223 77.4244C318.925 77.4244 321.326 76.6771 323.428 75.1827C325.629 73.6882 327.38 71.6458 328.681 69.0554C330.081 66.3653 330.782 63.3764 330.782 60.0886V20.9336C330.782 16.4502 330.081 13.1624 328.681 11.0701C327.38 8.87822 324.878 7.78229 321.176 7.78229V4.64391C324.378 4.9428 327.48 5.09225 330.482 5.09225C334.684 5.09225 338.586 4.9428 342.188 4.64391C345.891 4.24538 349.293 3.69741 352.394 3Z" fill="black"/>
<path d="M253.735 3C258.005 3 261.462 3.55932 264.106 4.67796C266.851 5.69491 268.986 7.11864 270.511 8.94915C272.138 10.8814 273.307 13.3729 274.019 16.4237C274.832 19.4746 275.239 23.5932 275.239 28.7797V69.8136C275.239 74.0847 275.951 76.983 277.374 78.5085C278.899 80.0339 281.441 80.7966 285 80.7966V84C283.068 83.8983 280.17 83.7966 276.307 83.6949C272.443 83.4915 268.63 83.3898 264.868 83.3898C261.005 83.3898 257.192 83.4915 253.43 83.6949C249.77 83.7966 246.973 83.8983 245.042 84V80.7966C248.092 80.7966 250.227 80.0339 251.447 78.5085C252.667 76.983 253.277 74.0847 253.277 69.8136V22.3729C253.277 19.8305 253.023 17.6441 252.515 15.8136C252.006 13.8814 251.091 12.4068 249.77 11.3898C248.448 10.2712 246.465 9.71186 243.821 9.71186C241.076 9.71186 238.534 10.4746 236.196 12C233.959 13.5254 232.129 15.661 230.705 18.4068C229.384 21.0508 228.723 24.0508 228.723 27.4068V69.8136C228.723 74.0847 229.333 76.983 230.553 78.5085C231.875 80.0339 234.01 80.7966 236.958 80.7966V84C235.128 83.8983 232.434 83.7966 228.875 83.6949C225.418 83.4915 221.809 83.3898 218.047 83.3898C214.183 83.3898 210.218 83.4915 206.151 83.6949C202.084 83.7966 199.034 83.8983 197 84V80.7966C200.559 80.7966 203.05 80.0339 204.473 78.5085C205.998 76.983 206.761 74.0847 206.761 69.8136V21.7627C206.761 17.1864 206.049 13.8305 204.626 11.6949C203.304 9.45762 200.762 8.33898 197 8.33898V5.13559C200.254 5.44068 203.406 5.59322 206.456 5.59322C210.726 5.59322 214.692 5.44068 218.352 5.13559C222.114 4.72881 225.571 4.16949 228.723 3.45763V17.1864C231.265 12 234.722 8.33898 239.094 6.20338C243.466 4.06779 248.346 3 253.735 3Z" fill="black"/>
<path d="M203.074 101C207.397 101 210.794 102.066 213.265 104.197C215.838 106.228 217.125 109.07 217.125 112.724C217.125 116.378 215.838 119.271 213.265 121.403C210.794 123.433 207.397 124.448 203.074 124.448C198.75 124.448 195.301 123.433 192.728 121.403C190.257 119.271 189.022 116.378 189.022 112.724C189.022 109.07 190.257 106.228 192.728 104.197C195.301 102.066 198.75 101 203.074 101ZM215.118 138.608V204.84C215.118 209.103 215.838 211.996 217.279 213.519C218.824 215.041 221.397 215.803 225 215.803V219C223.147 218.898 220.265 218.797 216.353 218.695C212.441 218.492 208.478 218.391 204.463 218.391C200.449 218.391 196.382 218.492 192.265 218.695C188.147 218.797 185.059 218.898 183 219V215.803C186.603 215.803 189.125 215.041 190.566 213.519C192.11 211.996 192.882 209.103 192.882 204.84V156.879C192.882 152.311 192.162 148.961 190.721 146.83C189.382 144.597 186.809 143.48 183 143.48V140.283C186.294 140.587 189.485 140.739 192.574 140.739C196.897 140.739 200.912 140.587 204.618 140.283C208.426 139.877 211.926 139.318 215.118 138.608Z" fill="black"/>
<path d="M98.1892 3V9.10169C91.1237 9.30508 85.7207 10.1186 81.9802 11.5424C78.4474 12.7627 76.0576 15.2034 74.8108 18.8644C73.564 22.322 72.9405 27.8135 72.9405 35.339V190.322C72.9405 196.627 73.3562 201.305 74.1874 204.356C75.2264 207.407 77.0967 209.441 79.7982 210.458C82.7075 211.475 86.9676 211.983 92.5784 211.983H107.852C114.918 211.983 121.568 210.356 127.802 207.102C134.036 203.847 139.647 199.271 144.634 193.373C149.622 187.271 153.778 180.051 157.103 171.712C160.428 163.373 162.921 154.119 164.584 143.949H171.753C171.13 150.864 170.818 159.814 170.818 170.797C170.818 175.475 170.922 182.288 171.13 191.237C171.338 200.186 171.961 209.441 173 219C162.402 218.593 150.453 218.39 137.153 218.39C123.853 218.186 112.008 218.085 101.618 218.085C96.4228 218.085 89.773 218.085 81.6685 218.085C73.564 218.085 64.836 218.186 55.4847 218.39C46.1333 218.39 36.6781 218.492 27.1189 218.695C17.5598 218.695 8.52012 218.797 0 219V212.898C6.64985 212.492 11.6372 211.678 14.9622 210.458C18.2871 209.237 20.4691 206.797 21.5081 203.136C22.755 199.475 23.3784 193.983 23.3784 186.661V35.339C23.3784 27.8135 22.755 22.322 21.5081 18.8644C20.4691 15.2034 18.1832 12.7627 14.6504 11.5424C11.3255 10.1186 6.44204 9.30508 0 9.10169V3C5.1952 3.20339 12.1568 3.40679 20.8847 3.61017C29.8204 3.81356 39.2757 3.91525 49.2504 3.91525C58.394 3.91525 67.3297 3.81356 76.0577 3.61017C84.9934 3.40679 92.3706 3.20339 98.1892 3Z" fill="black"/>
<path d="M453.72 0V195.196C453.72 200.955 454.615 205.242 456.406 208.058C458.197 210.745 461.395 212.089 466 212.089V216.12C462.034 215.736 458.069 215.545 454.103 215.545C448.731 215.545 443.678 215.736 438.945 216.12C434.339 216.504 430.054 217.208 426.089 218.232L427.432 20C427.432 14.2409 426.536 10.0176 424.745 7.32999C423.082 4.51443 419.884 3.10664 415.151 3.10664L412.5 0.575891C412.5 0 425.705 6.73532e-06 425.705 6.73532e-06L453.72 0ZM404.79 114.376C410.418 114.376 415.343 115.336 419.565 117.256C423.914 119.048 427.304 122.119 429.734 126.471L427.432 128.582C425.769 125.511 423.53 123.335 420.716 122.055C418.03 120.647 415.151 119.944 412.081 119.944C405.557 119.944 400.376 123.783 396.539 131.462C392.701 139.013 390.846 150.723 390.974 166.592C390.974 177.471 391.678 186.173 393.085 192.7C394.62 199.099 396.731 203.706 399.417 206.522C402.231 209.338 405.429 210.745 409.011 210.745C413.36 210.745 417.262 209.018 420.716 205.562C424.17 202.107 426.025 197.435 426.28 191.548L427.24 198.267C425.321 205.05 422.187 210.233 417.838 213.817C413.616 217.272 408.052 219 401.144 219C393.597 219 386.817 217.144 380.804 213.433C374.92 209.721 370.315 204.026 366.989 196.348C363.663 188.541 362 178.494 362 166.208C362 154.562 363.855 144.964 367.565 137.413C371.274 129.734 376.327 123.975 382.723 120.135C389.247 116.296 396.603 114.376 404.79 114.376Z" fill="#B69E49"/>
<path d="M399.825 57C402.672 57 404.977 57.3728 406.739 58.1185C408.57 58.7964 409.993 59.7454 411.01 60.9655C412.095 62.2535 412.874 63.9143 413.349 65.9479C413.891 67.9815 414.162 70.7269 414.162 74.184V101.536C414.162 104.383 414.637 106.315 415.586 107.332C416.602 108.349 418.297 108.857 420.67 108.857V110.992C419.382 110.925 417.45 110.857 414.874 110.789C412.298 110.653 409.756 110.586 407.248 110.586C404.672 110.586 402.13 110.653 399.622 110.789C397.181 110.857 395.317 110.925 394.029 110.992V108.857C396.063 108.857 397.486 108.349 398.3 107.332C399.113 106.315 399.52 104.383 399.52 101.536V69.9134C399.52 68.2187 399.351 66.7613 399.012 65.5412C398.673 64.2532 398.063 63.2703 397.181 62.5924C396.3 61.8468 394.978 61.4739 393.216 61.4739C391.386 61.4739 389.691 61.9823 388.132 62.9991C386.641 64.0159 385.42 65.4395 384.471 67.2697C383.59 69.0322 383.15 71.0319 383.15 73.2689V101.536C383.15 104.383 383.556 106.315 384.37 107.332C385.251 108.349 386.674 108.857 388.64 108.857V110.992C387.42 110.925 385.624 110.857 383.251 110.789C380.946 110.653 378.54 110.586 376.032 110.586C373.456 110.586 370.812 110.653 368.101 110.789C365.389 110.857 363.356 110.925 362 110.992V108.857C364.373 108.857 366.033 108.349 366.982 107.332C367.999 106.315 368.508 104.383 368.508 101.536V69.5067C368.508 66.4563 368.033 64.2193 367.084 62.7958C366.203 61.3045 364.508 60.5588 362 60.5588V58.4235C364.169 58.6269 366.271 58.7286 368.304 58.7286C371.151 58.7286 373.795 58.6269 376.235 58.4235C378.743 58.1524 381.048 57.7795 383.15 57.305V66.4563C384.844 62.9991 387.149 60.5588 390.064 59.1353C392.979 57.7118 396.232 57 399.825 57Z" fill="#B69E49"/>
<path d="M380.64 55C377.789 55 375.413 54.4523 373.512 53.3569C371.612 52.2615 370.218 50.8117 369.331 49.0074C368.444 47.1388 368 45.109 368 42.9182C368 40.1475 368.602 37.8922 369.806 36.1524C371.073 34.4126 372.689 32.995 374.653 31.8996C376.617 30.8042 378.676 29.9021 380.831 29.1933C383.048 28.4845 385.139 27.8079 387.103 27.1636C389.131 26.4548 390.747 25.6493 391.95 24.7472C393.218 23.7807 393.851 22.5564 393.851 21.0744V13.5353C393.851 11.86 393.566 10.3779 392.996 9.08922C392.489 7.73606 391.665 6.70508 390.525 5.99628C389.448 5.28748 388.022 4.93308 386.248 4.93308C384.981 4.93308 383.713 5.12639 382.446 5.51301C381.179 5.83519 380.134 6.41512 379.31 7.25279C381.084 7.89715 382.446 8.89591 383.397 10.2491C384.41 11.5378 384.917 13.0198 384.917 14.6952C384.917 16.886 384.157 18.6258 382.636 19.9145C381.179 21.2032 379.437 21.8476 377.409 21.8476C375.128 21.8476 373.386 21.1388 372.182 19.7212C371.041 18.2392 370.471 16.4672 370.471 14.4052C370.471 12.5366 370.915 10.9901 371.802 9.7658C372.752 8.54151 374.051 7.38166 375.698 6.28625C377.472 5.25527 379.595 4.44981 382.066 3.86989C384.601 3.28996 387.325 3 390.24 3C393.154 3 395.784 3.32218 398.128 3.96654C400.472 4.54647 402.437 5.64189 404.021 7.25279C405.478 8.73482 406.428 10.5713 406.872 12.7621C407.315 14.8885 407.537 17.5948 407.537 20.881V47.171C407.537 48.7819 407.696 49.9095 408.012 50.5539C408.329 51.1338 408.868 51.4238 409.628 51.4238C410.198 51.4238 410.737 51.2627 411.244 50.9405C411.814 50.6183 412.416 50.2317 413.05 49.7807L414 51.4238C412.669 52.5836 411.117 53.4858 409.343 54.1301C407.632 54.71 405.7 55 403.545 55C401.201 55 399.332 54.6778 397.938 54.0335C396.544 53.3247 395.53 52.3903 394.897 51.2305C394.326 50.0706 394.041 48.7175 394.041 47.171C392.521 49.6196 390.683 51.5527 388.529 52.9703C386.375 54.3234 383.745 55 380.64 55ZM387.388 48.8141C388.656 48.8141 389.796 48.5242 390.81 47.9442C391.887 47.2999 392.901 46.2689 393.851 44.8513V25.0372C393.281 26.0037 392.489 26.8736 391.475 27.6468C390.461 28.4201 389.384 29.2255 388.244 30.0632C387.103 30.8364 385.994 31.7063 384.917 32.6729C383.904 33.6394 383.08 34.8315 382.446 36.2491C381.813 37.6667 381.496 39.3742 381.496 41.3717C381.496 43.8848 382.034 45.7534 383.112 46.9777C384.189 48.202 385.614 48.8141 387.388 48.8141Z" fill="#B69E49"/>
<path fill-rule="evenodd" clip-rule="evenodd" d="M133.418 139.879C143.89 141.236 155.427 144.22 164.696 139.184C173.991 134.134 182.429 123.868 182.278 113.333C182.1 100.931 162.069 93.7546 163.868 81.4816C165.46 70.6229 187.386 72.4536 189.839 61.7549C191.731 53.5058 176.396 51.0575 172.579 43.4968C167.465 33.3695 173.172 17.9571 164.199 10.9748C155.997 4.59159 143.384 10.0172 133.418 13.023C124.698 15.6529 117.113 20.9629 110.479 27.1767C104.817 32.4802 102.13 39.8865 97.8441 46.3425C93.9155 52.2601 89.064 57.3624 86.1443 63.8321C82.8275 71.1816 80.1401 78.7523 79.5905 86.7901C78.9407 96.2931 77.8335 106.613 82.6565 114.841C87.5244 123.146 97.1746 127.288 105.832 131.558C114.55 135.858 123.769 138.629 133.418 139.879Z" fill="#B69E49"/>
</g>
<defs>
<clipPath id="clip0_2_4">
<rect width="470" height="500" fill="white"/>
</clipPath>
</defs>
</svg>
