<svg width="881" height="881" viewBox="0 0 881 881" fill="none" xmlns="http://www.w3.org/2000/svg">
<circle cx="440.5" cy="440.5" r="440.5" fill="white"/>
<path d="M763.031 516.45C753.395 516.45 745.034 515.671 737.949 514.112C731.005 512.695 725.621 510.569 721.795 507.735C717.969 505.043 716.056 501.713 716.056 497.745C716.056 493.777 718.04 490.022 722.007 486.48C725.975 483.079 732.281 480.386 740.925 478.403L743.05 481.803C740.783 484.496 739.224 486.905 738.374 489.03C737.666 491.298 737.311 493.423 737.311 495.407C737.311 500.934 739.791 505.185 744.751 508.16C749.852 511.278 756.937 512.837 766.006 512.837C772.383 512.837 777.697 511.916 781.948 510.073C786.341 508.373 789.6 505.964 791.726 502.847C793.993 499.729 795.126 496.186 795.126 492.219C795.126 488.251 793.639 484.85 790.663 482.016C787.687 479.182 781.665 477.765 772.596 477.765H761.118C754.599 477.765 749.144 476.915 744.751 475.214C740.358 473.514 737.028 471.176 734.761 468.2C732.493 465.082 731.36 461.469 731.36 457.36C731.36 450.699 733.981 445.102 739.224 440.568C744.467 436.033 751.198 431.995 759.417 428.452L761.33 430.152C759.913 431.144 758.425 432.349 756.866 433.766C755.308 435.183 754.528 437.238 754.528 439.93C754.528 444.465 757.079 446.732 762.18 446.732H782.798C792.009 446.732 800.015 447.724 806.817 449.708C813.761 451.691 819.145 454.951 822.971 459.485C826.939 463.878 828.923 469.688 828.923 476.915C828.923 484 826.585 490.518 821.909 496.47C817.374 502.563 810.289 507.381 800.653 510.924C791.017 514.608 778.476 516.45 763.031 516.45ZM766.006 431.215C757.221 431.215 749.356 430.011 742.413 427.602C735.611 425.193 730.226 421.508 726.258 416.549C722.291 411.447 720.307 405 720.307 397.206C720.307 389.413 722.291 383.036 726.258 378.076C730.226 372.975 735.611 369.22 742.413 366.811C749.356 364.402 757.221 363.197 766.006 363.197C774.792 363.197 782.586 364.402 789.387 366.811C796.331 369.22 801.787 372.975 805.754 378.076C809.722 383.036 811.706 389.413 811.706 397.206C811.706 405 809.722 411.447 805.754 416.549C801.787 421.508 796.331 425.193 789.387 427.602C782.586 430.011 774.792 431.215 766.006 431.215ZM766.006 427.389C768.699 427.389 770.824 425.193 772.383 420.8C773.942 416.407 774.721 408.543 774.721 397.206C774.721 385.87 773.942 378.005 772.383 373.613C770.824 369.22 768.699 367.023 766.006 367.023C763.314 367.023 761.188 369.22 759.63 373.613C758.071 378.005 757.292 385.87 757.292 397.206C757.292 408.543 758.071 416.407 759.63 420.8C761.188 425.193 763.314 427.389 766.006 427.389ZM800.653 381.902L796.189 380.414C798.457 374.463 801.928 369.716 806.605 366.173C811.422 362.489 816.665 360.647 822.334 360.647C827.293 360.647 830.978 361.993 833.387 364.685C835.796 367.378 837 370.708 837 374.675C837 378.785 835.866 381.973 833.599 384.24C831.474 386.508 828.852 387.641 825.735 387.641C823.042 387.641 820.562 386.72 818.295 384.878C816.169 383.036 814.965 380.273 814.682 376.588C814.398 372.904 815.744 368.228 818.72 362.56L819.57 364.047C814.611 365.89 810.714 368.157 807.88 370.849C805.046 373.542 802.637 377.226 800.653 381.902Z" fill="black"/>
<path d="M654.803 363.197C665.856 363.197 675.421 365.11 683.498 368.936C691.717 372.621 698.094 378.714 702.628 387.216C707.163 395.718 709.43 407.126 709.43 421.438C709.43 435.75 707.163 447.157 702.628 455.659C698.094 464.161 691.717 470.255 683.498 473.939C675.421 477.623 665.856 479.465 654.803 479.465C643.892 479.465 634.327 477.623 626.108 473.939C617.889 470.255 611.513 464.161 606.978 455.659C602.444 447.157 600.176 435.75 600.176 421.438C600.176 407.126 602.444 395.718 606.978 387.216C611.513 378.714 617.889 372.621 626.108 368.936C634.327 365.11 643.892 363.197 654.803 363.197ZM654.803 367.448C650.552 367.448 647.009 371.7 644.175 380.202C641.341 388.704 639.924 402.449 639.924 421.438C639.924 440.426 641.341 454.171 644.175 462.673C647.009 471.034 650.552 475.214 654.803 475.214C659.054 475.214 662.597 471.034 665.431 462.673C668.265 454.171 669.682 440.426 669.682 421.438C669.682 402.449 668.265 388.704 665.431 380.202C662.597 371.7 659.054 367.448 654.803 367.448Z" fill="black"/>
<path d="M549.163 363.197C555.681 363.197 560.782 364.047 564.467 365.748C568.293 367.307 571.198 369.291 573.182 371.7C575.307 374.25 576.866 377.651 577.858 381.902C578.85 386.153 579.346 391.892 579.346 399.119V456.722C579.346 462.673 580.196 466.712 581.896 468.838C583.739 470.963 586.856 472.026 591.249 472.026V476.49C588.415 476.348 584.093 476.206 578.283 476.064C572.615 475.781 567.017 475.639 561.491 475.639C555.539 475.639 549.73 475.781 544.061 476.064C538.393 476.206 534.142 476.348 531.308 476.49V472.026C534.992 472.026 537.543 470.963 538.96 468.838C540.377 466.712 541.086 462.673 541.086 456.722V387.641C541.086 384.665 540.731 382.186 540.023 380.202C539.314 378.218 538.181 376.73 536.622 375.738C535.205 374.746 533.221 374.25 530.67 374.25C528.12 374.25 525.64 374.888 523.231 376.163C520.964 377.439 519.051 379.281 517.492 381.69C516.075 383.957 515.366 386.578 515.366 389.554V456.722C515.366 462.673 516.075 466.712 517.492 468.838C519.051 470.963 521.601 472.026 525.144 472.026V476.49C522.452 476.348 518.484 476.206 513.241 476.064C507.998 475.781 502.613 475.639 497.087 475.639C491.135 475.639 485.113 475.781 479.019 476.064C472.926 476.206 468.321 476.348 465.203 476.49V472.026C469.596 472.026 472.643 470.963 474.343 468.838C476.185 466.712 477.106 462.673 477.106 456.722V389.342C477.106 382.965 476.256 378.289 474.556 375.313C472.855 372.195 469.738 370.637 465.203 370.637V366.173C469.738 366.598 474.13 366.811 478.382 366.811C485.467 366.811 492.056 366.598 498.149 366.173C504.384 365.606 510.123 364.827 515.366 363.835V379.139C518.767 373.471 523.302 369.432 528.97 367.023C534.78 364.473 541.511 363.197 549.163 363.197Z" fill="black"/>
<path d="M386.491 516.45C376.855 516.45 368.495 515.671 361.409 514.112C354.466 512.695 349.081 510.569 345.255 507.735C341.429 505.043 339.516 501.713 339.516 497.745C339.516 493.777 341.5 490.022 345.468 486.48C349.435 483.079 355.741 480.386 364.385 478.403L366.511 481.803C364.243 484.496 362.685 486.905 361.834 489.03C361.126 491.298 360.772 493.423 360.772 495.407C360.772 500.934 363.252 505.185 368.211 508.16C373.313 511.278 380.398 512.837 389.467 512.837C395.843 512.837 401.157 511.916 405.408 510.073C409.801 508.373 413.06 505.964 415.186 502.847C417.453 499.729 418.587 496.186 418.587 492.219C418.587 488.251 417.099 484.85 414.123 482.016C411.147 479.182 405.125 477.765 396.056 477.765H384.578C378.06 477.765 372.604 476.915 368.211 475.214C363.818 473.514 360.488 471.176 358.221 468.2C355.954 465.082 354.82 461.469 354.82 457.36C354.82 450.699 357.442 445.102 362.685 440.568C367.928 436.033 374.659 431.995 382.878 428.452L384.791 430.152C383.374 431.144 381.886 432.349 380.327 433.766C378.768 435.183 377.989 437.238 377.989 439.93C377.989 444.465 380.539 446.732 385.641 446.732H406.259C415.469 446.732 423.476 447.724 430.278 449.708C437.221 451.691 442.606 454.951 446.432 459.485C450.399 463.878 452.383 469.688 452.383 476.915C452.383 484 450.045 490.518 445.369 496.47C440.834 502.563 433.749 507.381 424.113 510.924C414.478 514.608 401.937 516.45 386.491 516.45ZM389.467 431.215C380.681 431.215 372.817 430.011 365.873 427.602C359.071 425.193 353.687 421.508 349.719 416.549C345.751 411.447 343.767 405 343.767 397.206C343.767 389.413 345.751 383.036 349.719 378.076C353.687 372.975 359.071 369.22 365.873 366.811C372.817 364.402 380.681 363.197 389.467 363.197C398.252 363.197 406.046 364.402 412.848 366.811C419.791 369.22 425.247 372.975 429.215 378.076C433.182 383.036 435.166 389.413 435.166 397.206C435.166 405 433.182 411.447 429.215 416.549C425.247 421.508 419.791 425.193 412.848 427.602C406.046 430.011 398.252 431.215 389.467 431.215ZM389.467 427.389C392.159 427.389 394.285 425.193 395.843 420.8C397.402 416.407 398.182 408.543 398.182 397.206C398.182 385.87 397.402 378.005 395.843 373.613C394.285 369.22 392.159 367.023 389.467 367.023C386.774 367.023 384.649 369.22 383.09 373.613C381.531 378.005 380.752 385.87 380.752 397.206C380.752 408.543 381.531 416.407 383.09 420.8C384.649 425.193 386.774 427.389 389.467 427.389ZM424.113 381.902L419.65 380.414C421.917 374.463 425.389 369.716 430.065 366.173C434.883 362.489 440.126 360.647 445.794 360.647C450.754 360.647 454.438 361.993 456.847 364.685C459.256 367.378 460.46 370.708 460.46 374.675C460.46 378.785 459.327 381.973 457.06 384.24C454.934 386.508 452.312 387.641 449.195 387.641C446.503 387.641 444.023 386.72 441.756 384.878C439.63 383.036 438.425 380.273 438.142 376.588C437.859 372.904 439.205 368.228 442.181 362.56L443.031 364.047C438.071 365.89 434.174 368.157 431.34 370.849C428.506 373.542 426.097 377.226 424.113 381.902Z" fill="black"/>
<path d="M265.268 516.45C255.632 516.45 247.271 515.671 240.186 514.112C233.243 512.695 227.858 510.569 224.032 507.735C220.206 505.043 218.293 501.713 218.293 497.745C218.293 493.777 220.277 490.022 224.244 486.48C228.212 483.079 234.518 480.386 243.162 478.403L245.287 481.803C243.02 484.496 241.461 486.905 240.611 489.03C239.903 491.298 239.548 493.423 239.548 495.407C239.548 500.934 242.028 505.185 246.988 508.16C252.089 511.278 259.174 512.837 268.243 512.837C274.62 512.837 279.934 511.916 284.185 510.073C288.578 508.373 291.837 505.964 293.963 502.847C296.23 499.729 297.364 496.186 297.364 492.219C297.364 488.251 295.876 484.85 292.9 482.016C289.924 479.182 283.902 477.765 274.833 477.765H263.355C256.836 477.765 251.381 476.915 246.988 475.214C242.595 473.514 239.265 471.176 236.998 468.2C234.731 465.082 233.597 461.469 233.597 457.36C233.597 450.699 236.218 445.102 241.461 440.568C246.704 436.033 253.435 431.995 261.654 428.452L263.567 430.152C262.15 431.144 260.662 432.349 259.104 433.766C257.545 435.183 256.765 437.238 256.765 439.93C256.765 444.465 259.316 446.732 264.417 446.732H285.035C294.246 446.732 302.252 447.724 309.054 449.708C315.998 451.691 321.382 454.951 325.208 459.485C329.176 463.878 331.16 469.688 331.16 476.915C331.16 484 328.822 490.518 324.146 496.47C319.611 502.563 312.526 507.381 302.89 510.924C293.254 514.608 280.713 516.45 265.268 516.45ZM268.243 431.215C259.458 431.215 251.593 430.011 244.65 427.602C237.848 425.193 232.463 421.508 228.496 416.549C224.528 411.447 222.544 405 222.544 397.206C222.544 389.413 224.528 383.036 228.496 378.076C232.463 372.975 237.848 369.22 244.65 366.811C251.593 364.402 259.458 363.197 268.243 363.197C277.029 363.197 284.823 364.402 291.625 366.811C298.568 369.22 304.024 372.975 307.991 378.076C311.959 383.036 313.943 389.413 313.943 397.206C313.943 405 311.959 411.447 307.991 416.549C304.024 421.508 298.568 425.193 291.625 427.602C284.823 430.011 277.029 431.215 268.243 431.215ZM268.243 427.389C270.936 427.389 273.061 425.193 274.62 420.8C276.179 416.407 276.958 408.543 276.958 397.206C276.958 385.87 276.179 378.005 274.62 373.613C273.061 369.22 270.936 367.023 268.243 367.023C265.551 367.023 263.426 369.22 261.867 373.613C260.308 378.005 259.529 385.87 259.529 397.206C259.529 408.543 260.308 416.407 261.867 420.8C263.426 425.193 265.551 427.389 268.243 427.389ZM302.89 381.902L298.426 380.414C300.694 374.463 304.165 369.716 308.842 366.173C313.66 362.489 318.903 360.647 324.571 360.647C329.53 360.647 333.215 361.993 335.624 364.685C338.033 367.378 339.237 370.708 339.237 374.675C339.237 378.785 338.104 381.973 335.836 384.24C333.711 386.508 331.089 387.641 327.972 387.641C325.279 387.641 322.8 386.72 320.532 384.878C318.407 383.036 317.202 380.273 316.919 376.588C316.635 372.904 317.982 368.228 320.957 362.56L321.808 364.047C316.848 365.89 312.951 368.157 310.117 370.849C307.283 373.542 304.874 377.226 302.89 381.902Z" fill="black"/>
<path d="M204.819 326C204.252 333.085 203.827 339.958 203.543 346.618C203.402 353.136 203.331 358.167 203.331 361.709C203.331 364.685 203.402 367.519 203.543 370.212C203.685 372.904 203.827 375.171 203.969 377.013H199.08C197.379 365.252 194.545 356.041 190.578 349.381C186.61 342.579 181.934 337.832 176.549 335.14C171.306 332.306 165.779 330.889 159.969 330.889H157.206C153.522 330.889 150.759 331.243 148.917 331.952C147.074 332.518 145.799 333.723 145.091 335.565C144.524 337.407 144.24 340.312 144.24 344.28V458.21C144.24 462.036 144.524 464.941 145.091 466.925C145.799 468.767 147.074 470.042 148.917 470.751C150.759 471.317 153.522 471.601 157.206 471.601H164.221C168.897 471.601 173.786 470.113 178.887 467.137C184.13 464.02 188.948 458.777 193.341 451.408C197.734 444.039 201.064 433.978 203.331 421.225H208.22C207.795 426.326 207.582 432.845 207.582 440.78C207.582 444.323 207.653 449.424 207.795 456.084C207.936 462.603 208.361 469.404 209.07 476.49C201.843 476.206 193.695 476.064 184.626 476.064C175.557 475.923 167.48 475.852 160.395 475.852C156.569 475.852 151.68 475.852 145.728 475.852C139.918 475.852 133.542 475.923 126.598 476.064C119.796 476.064 112.853 476.135 105.768 476.277C98.8242 476.277 92.235 476.348 86 476.49V472.238C90.3928 471.955 93.652 471.388 95.7776 470.538C97.9031 469.688 99.3202 467.987 100.029 465.437C100.737 462.886 101.091 459.06 101.091 453.959V348.531C101.091 343.288 100.737 339.462 100.029 337.053C99.3202 334.502 97.8323 332.802 95.565 331.952C93.4395 330.96 90.2511 330.393 86 330.251V326C92.235 326.142 98.8242 326.283 105.768 326.425C112.853 326.425 119.796 326.496 126.598 326.638C133.542 326.638 139.918 326.638 145.728 326.638C151.68 326.638 156.569 326.638 160.395 326.638C166.913 326.638 174.282 326.638 182.5 326.638C190.861 326.496 198.3 326.283 204.819 326ZM173.998 398.694C173.998 398.694 173.998 399.403 173.998 400.82C173.998 402.237 173.998 402.945 173.998 402.945H137.864C137.864 402.945 137.864 402.237 137.864 400.82C137.864 399.403 137.864 398.694 137.864 398.694H173.998ZM180.162 370.637C179.595 378.714 179.312 384.878 179.312 389.129C179.454 393.38 179.525 397.277 179.525 400.82C179.525 404.362 179.595 408.259 179.737 412.51C179.879 416.761 180.233 422.926 180.8 431.003H175.911C175.061 425.76 173.29 421.013 170.597 416.761C168.047 412.51 164.717 409.18 160.607 406.771C156.498 404.221 151.751 402.945 146.366 402.945V398.694C150.334 398.694 153.947 397.844 157.206 396.143C160.465 394.443 163.3 392.176 165.708 389.342C168.259 386.508 170.314 383.461 171.873 380.202C173.573 376.943 174.707 373.754 175.273 370.637H180.162Z" fill="black"/>
<path fill-rule="evenodd" clip-rule="evenodd" d="M389.581 169.677C445.118 157.18 501.488 129.97 555.487 147.987C613.698 167.409 672.265 210.401 688.777 269.503C705.232 328.4 644.454 381.033 637.573 441.797C630.355 505.523 677.089 572.886 647.946 630.016C618.018 688.684 552.683 736.972 486.822 737.314C420.609 737.658 387.205 649.222 323.35 631.703C257.483 613.633 161.177 693.83 122.679 637.413C81.8205 577.535 170.033 504.903 189.102 434.966C199.238 397.793 195.747 359.782 208.312 323.358C222.086 283.43 233.38 240.532 265.597 213.218C299.699 184.306 345.964 179.491 389.581 169.677Z" fill="#D6AA38"/>
<mask id="mask0_9_39" style="mask-type:alpha" maskUnits="userSpaceOnUse" x="112" y="142" width="580" height="596">
<path fill-rule="evenodd" clip-rule="evenodd" d="M389.581 169.677C445.118 157.18 501.488 129.97 555.487 147.987C613.698 167.409 672.265 210.401 688.777 269.503C705.232 328.4 644.454 381.033 637.573 441.797C630.355 505.523 677.089 572.886 647.946 630.016C618.018 688.684 552.683 736.972 486.822 737.314C420.609 737.658 387.205 649.222 323.35 631.703C257.483 613.633 161.177 693.83 122.679 637.413C81.8205 577.535 170.033 504.903 189.102 434.966C199.238 397.793 195.747 359.782 208.312 323.358C222.086 283.43 233.38 240.532 265.597 213.218C299.699 184.306 345.964 179.491 389.581 169.677Z" fill="#D6AA38"/>
</mask>
<g mask="url(#mask0_9_39)">
<path d="M654.803 363.197C665.856 363.197 675.421 365.11 683.498 368.936C691.717 372.621 698.094 378.714 702.628 387.216C707.163 395.718 709.43 407.126 709.43 421.438C709.43 435.75 707.163 447.157 702.628 455.659C698.094 464.161 691.717 470.255 683.498 473.939C675.421 477.623 665.856 479.465 654.803 479.465C643.892 479.465 634.327 477.623 626.108 473.939C617.889 470.255 611.513 464.161 606.978 455.659C602.444 447.157 600.176 435.75 600.176 421.438C600.176 407.126 602.444 395.718 606.978 387.216C611.513 378.714 617.889 372.621 626.108 368.936C634.327 365.11 643.892 363.197 654.803 363.197ZM654.803 367.448C650.552 367.448 647.009 371.7 644.175 380.202C641.341 388.704 639.924 402.449 639.924 421.438C639.924 440.426 641.341 454.171 644.175 462.673C647.009 471.034 650.552 475.214 654.803 475.214C659.054 475.214 662.597 471.034 665.431 462.673C668.265 454.171 669.682 440.426 669.682 421.438C669.682 402.449 668.265 388.704 665.431 380.202C662.597 371.7 659.054 367.448 654.803 367.448Z" fill="white"/>
<path d="M549.163 363.197C555.681 363.197 560.782 364.047 564.467 365.748C568.293 367.307 571.198 369.291 573.182 371.7C575.307 374.25 576.866 377.651 577.858 381.902C578.85 386.153 579.346 391.892 579.346 399.119V456.722C579.346 462.673 580.196 466.712 581.896 468.838C583.739 470.963 586.856 472.026 591.249 472.026V476.49C588.415 476.348 584.093 476.206 578.283 476.064C572.615 475.781 567.017 475.639 561.491 475.639C555.539 475.639 549.73 475.781 544.061 476.064C538.393 476.206 534.142 476.348 531.308 476.49V472.026C534.992 472.026 537.543 470.963 538.96 468.838C540.377 466.712 541.086 462.673 541.086 456.722V387.641C541.086 384.665 540.731 382.186 540.023 380.202C539.314 378.218 538.181 376.73 536.622 375.738C535.205 374.746 533.221 374.25 530.67 374.25C528.12 374.25 525.64 374.888 523.231 376.163C520.964 377.439 519.051 379.281 517.492 381.69C516.075 383.957 515.366 386.578 515.366 389.554V456.722C515.366 462.673 516.075 466.712 517.492 468.838C519.051 470.963 521.601 472.026 525.144 472.026V476.49C522.452 476.348 518.484 476.206 513.241 476.064C507.998 475.781 502.613 475.639 497.087 475.639C491.135 475.639 485.113 475.781 479.019 476.064C472.926 476.206 468.321 476.348 465.203 476.49V472.026C469.596 472.026 472.643 470.963 474.343 468.838C476.185 466.712 477.106 462.673 477.106 456.722V389.342C477.106 382.965 476.256 378.289 474.556 375.313C472.855 372.195 469.738 370.637 465.203 370.637V366.173C469.738 366.598 474.13 366.811 478.382 366.811C485.467 366.811 492.056 366.598 498.149 366.173C504.384 365.606 510.123 364.827 515.366 363.835V379.139C518.767 373.471 523.302 369.432 528.97 367.023C534.78 364.473 541.511 363.197 549.163 363.197Z" fill="white"/>
<path d="M386.491 516.45C376.855 516.45 368.495 515.671 361.409 514.112C354.466 512.695 349.081 510.569 345.255 507.735C341.429 505.043 339.516 501.713 339.516 497.745C339.516 493.777 341.5 490.022 345.468 486.48C349.435 483.079 355.741 480.386 364.385 478.403L366.511 481.803C364.243 484.496 362.685 486.905 361.834 489.03C361.126 491.298 360.772 493.423 360.772 495.407C360.772 500.934 363.252 505.185 368.211 508.16C373.313 511.278 380.398 512.837 389.467 512.837C395.843 512.837 401.157 511.916 405.408 510.073C409.801 508.373 413.06 505.964 415.186 502.847C417.453 499.729 418.587 496.186 418.587 492.219C418.587 488.251 417.099 484.85 414.123 482.016C411.147 479.182 405.125 477.765 396.056 477.765H384.578C378.06 477.765 372.604 476.915 368.211 475.214C363.818 473.514 360.488 471.176 358.221 468.2C355.954 465.082 354.82 461.469 354.82 457.36C354.82 450.699 357.442 445.102 362.685 440.568C367.928 436.033 374.659 431.995 382.878 428.452L384.791 430.152C383.374 431.144 381.886 432.349 380.327 433.766C378.768 435.183 377.989 437.238 377.989 439.93C377.989 444.465 380.539 446.732 385.641 446.732H406.259C415.469 446.732 423.476 447.724 430.278 449.708C437.221 451.691 442.606 454.951 446.432 459.485C450.399 463.878 452.383 469.688 452.383 476.915C452.383 484 450.045 490.518 445.369 496.47C440.834 502.563 433.749 507.381 424.113 510.924C414.478 514.608 401.937 516.45 386.491 516.45ZM389.467 431.215C380.681 431.215 372.817 430.011 365.873 427.602C359.071 425.193 353.687 421.508 349.719 416.549C345.751 411.447 343.767 405 343.767 397.206C343.767 389.413 345.751 383.036 349.719 378.076C353.687 372.975 359.071 369.22 365.873 366.811C372.817 364.402 380.681 363.197 389.467 363.197C398.252 363.197 406.046 364.402 412.848 366.811C419.791 369.22 425.247 372.975 429.215 378.076C433.182 383.036 435.166 389.413 435.166 397.206C435.166 405 433.182 411.447 429.215 416.549C425.247 421.508 419.791 425.193 412.848 427.602C406.046 430.011 398.252 431.215 389.467 431.215ZM389.467 427.389C392.159 427.389 394.285 425.193 395.843 420.8C397.402 416.407 398.182 408.543 398.182 397.206C398.182 385.87 397.402 378.005 395.843 373.613C394.285 369.22 392.159 367.023 389.467 367.023C386.774 367.023 384.649 369.22 383.09 373.613C381.531 378.005 380.752 385.87 380.752 397.206C380.752 408.543 381.531 416.407 383.09 420.8C384.649 425.193 386.774 427.389 389.467 427.389ZM424.113 381.902L419.65 380.414C421.917 374.463 425.389 369.716 430.065 366.173C434.883 362.489 440.126 360.647 445.794 360.647C450.754 360.647 454.438 361.993 456.847 364.685C459.256 367.378 460.46 370.708 460.46 374.675C460.46 378.785 459.327 381.973 457.06 384.24C454.934 386.508 452.312 387.641 449.195 387.641C446.503 387.641 444.023 386.72 441.756 384.878C439.63 383.036 438.425 380.273 438.142 376.588C437.859 372.904 439.205 368.228 442.181 362.56L443.031 364.047C438.071 365.89 434.174 368.157 431.34 370.849C428.506 373.542 426.097 377.226 424.113 381.902Z" fill="white"/>
<path d="M265.268 516.45C255.632 516.45 247.271 515.671 240.186 514.112C233.243 512.695 227.858 510.569 224.032 507.735C220.206 505.043 218.293 501.713 218.293 497.745C218.293 493.777 220.277 490.022 224.244 486.48C228.212 483.079 234.518 480.386 243.162 478.403L245.287 481.803C243.02 484.496 241.461 486.905 240.611 489.03C239.903 491.298 239.548 493.423 239.548 495.407C239.548 500.934 242.028 505.185 246.988 508.16C252.089 511.278 259.174 512.837 268.243 512.837C274.62 512.837 279.934 511.916 284.185 510.073C288.578 508.373 291.837 505.964 293.963 502.847C296.23 499.729 297.364 496.186 297.364 492.219C297.364 488.251 295.876 484.85 292.9 482.016C289.924 479.182 283.902 477.765 274.833 477.765H263.355C256.836 477.765 251.381 476.915 246.988 475.214C242.595 473.514 239.265 471.176 236.998 468.2C234.731 465.082 233.597 461.469 233.597 457.36C233.597 450.699 236.218 445.102 241.461 440.568C246.704 436.033 253.435 431.995 261.654 428.452L263.567 430.152C262.15 431.144 260.662 432.349 259.104 433.766C257.545 435.183 256.765 437.238 256.765 439.93C256.765 444.465 259.316 446.732 264.417 446.732H285.035C294.246 446.732 302.252 447.724 309.054 449.708C315.998 451.691 321.382 454.951 325.208 459.485C329.176 463.878 331.16 469.688 331.16 476.915C331.16 484 328.822 490.518 324.146 496.47C319.611 502.563 312.526 507.381 302.89 510.924C293.254 514.608 280.713 516.45 265.268 516.45ZM268.243 431.215C259.458 431.215 251.593 430.011 244.65 427.602C237.848 425.193 232.463 421.508 228.496 416.549C224.528 411.447 222.544 405 222.544 397.206C222.544 389.413 224.528 383.036 228.496 378.076C232.463 372.975 237.848 369.22 244.65 366.811C251.593 364.402 259.458 363.197 268.243 363.197C277.029 363.197 284.823 364.402 291.625 366.811C298.568 369.22 304.024 372.975 307.991 378.076C311.959 383.036 313.943 389.413 313.943 397.206C313.943 405 311.959 411.447 307.991 416.549C304.024 421.508 298.568 425.193 291.625 427.602C284.823 430.011 277.029 431.215 268.243 431.215ZM268.243 427.389C270.936 427.389 273.061 425.193 274.62 420.8C276.179 416.407 276.958 408.543 276.958 397.206C276.958 385.87 276.179 378.005 274.62 373.613C273.061 369.22 270.936 367.023 268.243 367.023C265.551 367.023 263.426 369.22 261.867 373.613C260.308 378.005 259.529 385.87 259.529 397.206C259.529 408.543 260.308 416.407 261.867 420.8C263.426 425.193 265.551 427.389 268.243 427.389ZM302.89 381.902L298.426 380.414C300.694 374.463 304.165 369.716 308.842 366.173C313.66 362.489 318.903 360.647 324.571 360.647C329.53 360.647 333.215 361.993 335.624 364.685C338.033 367.378 339.237 370.708 339.237 374.675C339.237 378.785 338.104 381.973 335.836 384.24C333.711 386.508 331.089 387.641 327.972 387.641C325.279 387.641 322.8 386.72 320.532 384.878C318.407 383.036 317.202 380.273 316.919 376.588C316.635 372.904 317.982 368.228 320.957 362.56L321.808 364.047C316.848 365.89 312.951 368.157 310.117 370.849C307.283 373.542 304.874 377.226 302.89 381.902Z" fill="white"/>
<path d="M204.819 326C204.252 333.085 203.827 339.958 203.543 346.618C203.402 353.136 203.331 358.167 203.331 361.709C203.331 364.685 203.402 367.519 203.543 370.212C203.685 372.904 203.827 375.171 203.969 377.013H199.08C197.379 365.252 194.545 356.041 190.578 349.381C186.61 342.579 181.934 337.832 176.549 335.14C171.306 332.306 165.779 330.889 159.969 330.889H157.206C153.522 330.889 150.759 331.243 148.917 331.952C147.074 332.518 145.799 333.723 145.091 335.565C144.524 337.407 144.24 340.312 144.24 344.28V458.21C144.24 462.036 144.524 464.941 145.091 466.925C145.799 468.767 147.074 470.042 148.917 470.751C150.759 471.317 153.522 471.601 157.206 471.601H164.221C168.897 471.601 173.786 470.113 178.887 467.137C184.13 464.02 188.948 458.777 193.341 451.408C197.734 444.039 201.064 433.978 203.331 421.225H208.22C207.795 426.326 207.582 432.845 207.582 440.78C207.582 444.323 207.653 449.424 207.795 456.084C207.936 462.603 208.361 469.404 209.07 476.49C201.843 476.206 193.695 476.064 184.626 476.064C175.557 475.923 167.48 475.852 160.395 475.852C156.569 475.852 151.68 475.852 145.728 475.852C139.918 475.852 133.542 475.923 126.598 476.064C119.796 476.064 112.853 476.135 105.768 476.277C98.8242 476.277 92.235 476.348 86 476.49V472.238C90.3928 471.955 93.652 471.388 95.7776 470.538C97.9031 469.688 99.3202 467.987 100.029 465.437C100.737 462.886 101.091 459.06 101.091 453.959V348.531C101.091 343.288 100.737 339.462 100.029 337.053C99.3202 334.502 97.8323 332.802 95.565 331.952C93.4395 330.96 90.2511 330.393 86 330.251V326C92.235 326.142 98.8242 326.283 105.768 326.425C112.853 326.425 119.796 326.496 126.598 326.638C133.542 326.638 139.918 326.638 145.728 326.638C151.68 326.638 156.569 326.638 160.395 326.638C166.913 326.638 174.282 326.638 182.5 326.638C190.861 326.496 198.3 326.283 204.819 326ZM173.998 398.694C173.998 398.694 173.998 399.403 173.998 400.82C173.998 402.237 173.998 402.945 173.998 402.945H137.864C137.864 402.945 137.864 402.237 137.864 400.82C137.864 399.403 137.864 398.694 137.864 398.694H173.998ZM180.162 370.637C179.595 378.714 179.312 384.878 179.312 389.129C179.454 393.38 179.525 397.277 179.525 400.82C179.525 404.362 179.595 408.259 179.737 412.51C179.879 416.761 180.233 422.926 180.8 431.003H175.911C175.061 425.76 173.29 421.013 170.597 416.761C168.047 412.51 164.717 409.18 160.607 406.771C156.498 404.221 151.751 402.945 146.366 402.945V398.694C150.334 398.694 153.947 397.844 157.206 396.143C160.465 394.443 163.3 392.176 165.708 389.342C168.259 386.508 170.314 383.461 171.873 380.202C173.573 376.943 174.707 373.754 175.273 370.637H180.162Z" fill="white"/>
</g>
</svg>
